<svg xmlns="http://www.w3.org/2000/svg" version="1.1" xmlns:xlink="http://www.w3.org/1999/xlink" xmlns:svgjs="http://svgjs.dev/svgjs" width="1440" height="250" preserveAspectRatio="none" viewBox="0 0 1440 250"><g mask="url(&quot;#SvgjsMask1045&quot;)" fill="none"><rect width="1440" height="250" x="0" y="0" fill="rgba(5, 172, 255, 0.8)"></rect><path d="M39 250L289 0L607 0L357 250z" fill="url(&quot;#SvgjsLinearGradient1046&quot;)"></path><path d="M279.6 250L529.6 0L655.6 0L405.6 250z" fill="url(&quot;#SvgjsLinearGradient1046&quot;)"></path><path d="M504.20000000000005 250L754.2 0L1058.7 0L808.7 250z" fill="url(&quot;#SvgjsLinearGradient1046&quot;)"></path><path d="M744.8000000000001 250L994.8000000000001 0L1326.3000000000002 0L1076.3000000000002 250z" fill="url(&quot;#SvgjsLinearGradient1046&quot;)"></path><path d="M1421 250L1171 0L985 0L1235 250z" fill="url(&quot;#SvgjsLinearGradient1047&quot;)"></path><path d="M1169.4 250L919.4000000000001 0L635.9000000000001 0L885.9000000000001 250z" fill="url(&quot;#SvgjsLinearGradient1047&quot;)"></path><path d="M939.8 250L689.8 0L412.29999999999995 0L662.3 250z" fill="url(&quot;#SvgjsLinearGradient1047&quot;)"></path><path d="M691.1999999999999 250L441.19999999999993 0L166.69999999999993 0L416.69999999999993 250z" fill="url(&quot;#SvgjsLinearGradient1047&quot;)"></path><path d="M1235.5143024071508 250L1440 45.514302407150836L1440 250z" fill="url(&quot;#SvgjsLinearGradient1046&quot;)"></path><path d="M0 250L204.48569759284916 250L 0 45.514302407150836z" fill="url(&quot;#SvgjsLinearGradient1047&quot;)"></path></g><defs><mask id="SvgjsMask1045"><rect width="1440" height="250" fill="#ffffff"></rect></mask><linearGradient x1="0%" y1="100%" x2="100%" y2="0%" id="SvgjsLinearGradient1046"><stop stop-color="rgba(15, 70, 185, 0.2)" offset="0"></stop><stop stop-opacity="0" stop-color="rgba(15, 70, 185, 0.2)" offset="0.66"></stop></linearGradient><linearGradient x1="100%" y1="100%" x2="0%" y2="0%" id="SvgjsLinearGradient1047"><stop stop-color="rgba(15, 70, 185, 0.2)" offset="0"></stop><stop stop-opacity="0" stop-color="rgba(15, 70, 185, 0.2)" offset="0.66"></stop></linearGradient></defs></svg>